# xmcd
#
# Track frame offsets:
#	150
#	12901
#	26055
#	37707
#	48806
#	61854
#	75782
#	88548
#	103351
#
# Disc length: 1551 seconds
#
# Revision: 0
# Processed by: cddbd v1.5.2PL0 Copyright (c) Steve Scherf et al.
# Submitted via: EasyCDDAExtractor 16.0.6.1
#
DISCID=59060d09
DTITLE=Καζαντζίδης Στέλιος-Μαρινέλλα - Στέλιος Καζαντζίδης και Μαρινέλλα
DYEAR=1997
DGENRE=Λαϊκή
TTITLE0=Καζαντζίδης Στέλιος - Ίσως αύριο [Βασίλης Τσιτσάνης]
TTITLE1=Καζαντζίδης Στέλιος - Ποιος θα με πληροφορήσει [Απόστολος Καλδάρας-Ευτ
TTITLE1=Παπαγιαννοπούλου]
TTITLE2=Καζαντζίδης Στέλιος - Η γυναίκα που μ' αρέσει [Γιώργος Τρίμης-Κ. Μπιτί
TTITLE2=νης]
TTITLE3=Καζαντζίδης Στέλιος - Κλαίω και πονώ [Στέλιος Καζαντζίδης]
TTITLE4=Καζαντζίδης Στέλιος-Μαρινέλλα - Η πρώτη αγάπη σου είμαι εγώ [Γ. Μητσάκ
TTITLE4=ης]
TTITLE5=Καζαντζίδης Στέλιος - Ουίσκι, τζιν και φρούμελ [Β. Καραπατάκης-Χρ. Κολ
TTITLE5=οκοτρώνης]
TTITLE6=Καζαντζίδης Στέλιος-Μαρινέλλα - Βρε σαν τα χιόνια [Μανώλης Χιώτης]
TTITLE7=Καζαντζίδης Στέλιος-Μαρινέλλα - Είσαι η ζωή μου [Στέλιος Καζαντζίδης]
TTITLE8=Καζαντζίδης Στέλιος - Πυρ, γυνή και θάλασσα [Στέλιος Χρυσίνης-Χρ. Κολο
TTITLE8=κοτρώνης]
EXTD=
EXTT0=
EXTT1=
EXTT2=
EXTT3=
EXTT4=
EXTT5=
EXTT6=
EXTT7=
EXTT8=
PLAYORDER=
